<?xml version="1.0" encoding="utf-8"?>
<!-- Generator: Adobe Illustrator 27.5.0, SVG Export Plug-In . SVG Version: 6.00 Build 0)  -->
<svg version="1.1" id="Layer_1" xmlns="http://www.w3.org/2000/svg" xmlns:xlink="http://www.w3.org/1999/xlink" x="0px" y="0px"
	 viewBox="0 0 845.7 254.2" style="enable-background:new 0 0 845.7 254.2;" xml:space="preserve">
<style type="text/css">
	.st0{fill:#FDB825;}
	.st1{fill:#2C1A5D;}
</style>
<g id="Layer_2_00000168807919644186269740000002077918568892650171_">
</g>
<g id="Layer_1_00000015318528104711082130000017938865342468315324_">
	<g>
		<path class="st0" d="M154.5,79.3c-18.2,8.2-30.9,26.5-30.9,47.8s12.7,39.6,31,47.8c-9-13.7-14.3-30.1-14.3-47.8
			C140.3,109.5,145.5,93.1,154.5,79.3"/>
		<path class="st0" d="M110.3,79.3c-18.2,8.2-31,26.5-31,47.8s12.7,39.6,31,47.8c-9-13.7-14.3-30.1-14.3-47.8
			C96.1,109.5,101.3,93.1,110.3,79.3"/>
		<path class="st0" d="M691.3,79.3c18.2,8.2,31,26.5,31,47.8s-12.7,39.6-31,47.8c9-13.7,14.3-30.1,14.3-47.8
			C705.5,109.5,700.3,93.1,691.3,79.3"/>
		<path class="st0" d="M735.4,79.3c18.2,8.2,31,26.5,31,47.8s-12.7,39.6-31,47.8c9-13.7,14.3-30.1,14.3-47.8
			C749.7,109.5,744.5,93.1,735.4,79.3"/>
		<path class="st1" d="M666.3,150.5c-3.6,1.5-9.5,2.6-15.1,2.6c-15.9,0-25.3-10-25.3-25.9c0-17.8,11-26.3,25.2-26.3
			c6.5,0,11.5,1.4,15,2.9l3.8-14.1c-3.2-1.6-10.2-3.5-19.5-3.5c-24,0-43.3,14.9-43.3,42c0,22.7,14.1,39.9,41.5,39.9
			c9.5,0,17.1-1.9,20.2-3.4L666.3,150.5z M568,166.8h17.9V87.5H568V166.8z M506.6,100.9c1.3-0.3,3.8-0.6,8.1-0.6
			c8.2,0,13.2,3.8,13.2,10.9c0,6.9-5.3,11.4-14.2,11.4h-7.1V100.9z M488.9,166.8h17.7v-31.2h5.3c7.4,0.1,10.8,2.7,13.1,12.7
			c2.2,9.8,4.2,16.2,5.4,18.5h18.3c-1.5-3.1-3.9-13.4-6.3-22.5c-2-7.3-5.1-12.5-10.6-14.7v-0.4c6.8-2.5,14-9.4,14-19.4
			c0-7.3-2.6-12.8-7.4-16.6c-5.6-4.6-13.9-6.4-25.6-6.4c-9.6,0-18.1,0.7-23.9,1.8L488.9,166.8L488.9,166.8z M430.5,166.8h17.9v-64.3
			H470v-15h-60.9v15h21.4V166.8z M341.1,166.8v-23.9c0-12.9-0.2-24.1-0.8-34.7h0.5c3.8,9.3,9.1,19.4,13.8,28l16.9,30.6h18.8V87.5
			h-16.5v23c0,12,0.4,22.7,1.4,33.2H375c-3.6-8.9-8.2-18.8-12.9-27.2l-16.5-29h-21v79.3H341.1z M299.7,118.7h-29.2v-16.5h30.9V87.5
			h-48.8v79.3h50.5v-14.7h-32.6v-18.9h29.2L299.7,118.7L299.7,118.7z M228.7,150.5c-3.7,1.5-9.5,2.6-15.1,2.6
			c-15.9,0-25.3-10-25.3-25.9c0-17.8,11.1-26.3,25.2-26.3c6.5,0,11.5,1.4,15,2.9l3.8-14.1c-3.2-1.6-10.2-3.5-19.5-3.5
			c-24,0-43.3,14.9-43.3,42c0,22.7,14.1,39.9,41.5,39.9c9.5,0,17.1-1.9,20.2-3.4L228.7,150.5z"/>
	</g>
</g>
</svg>
